<?xml version="1.0" encoding="utf-8"?>
<!-- Generator: Adobe Illustrator 27.0.0, SVG Export Plug-In . SVG Version: 6.00 Build 0)  -->
<svg version="1.1" id="图层_1" xmlns="http://www.w3.org/2000/svg" xmlns:xlink="http://www.w3.org/1999/xlink" x="0px" y="0px"
	 viewBox="176 652 1094 166" style="enable-background:new 176 652 1094 166;" xml:space="preserve">
<style type="text/css">
	.st0{fill:url(#SVGID_1_);}
	.st1{fill:url(#SVGID_00000003819931592764278650000005865892083165062821_);}
	.st2{fill:url(#SVGID_00000067958534310692815170000008327865091749414018_);}
	.st3{fill:url(#SVGID_00000145771329022348928550000012537750558392482453_);}
	.st4{fill:url(#SVGID_00000085961104359900993630000010946803608259697031_);}
	.st5{fill:url(#SVGID_00000110436830717248472420000015234034863409646498_);}
	.st6{fill:url(#SVGID_00000075131694598913961090000008550749225294370740_);}
	.st7{fill:url(#SVGID_00000051361541435648750860000014814591916152980908_);}
	.st8{fill:url(#SVGID_00000003813258437056830900000010902194915834539424_);}
	.st9{fill:url(#SVGID_00000125578399805823986220000003535770366316188334_);}
	.st10{fill:url(#SVGID_00000175314405481297217260000004894749761316003974_);}
	.st11{fill:url(#SVGID_00000100375184499596190980000002847010914468049587_);}
	.st12{fill:url(#SVGID_00000044160312586117737770000015918692409599717546_);}
	.st13{fill:url(#SVGID_00000168821652549974693620000011711484668345739173_);}
	.st14{fill:url(#SVGID_00000169534310818206768820000015983826331182871713_);}
</style>
<linearGradient id="SVGID_1_" gradientUnits="userSpaceOnUse" x1="242.6648" y1="660.4662" x2="381.6914" y2="827.6292">
	<stop  offset="0" style="stop-color:#0D78F8"/>
	<stop  offset="1" style="stop-color:#0833DB"/>
</linearGradient>
<path class="st0" d="M420.9,735.6L420.9,735.6c0-23.9,0-47.8-0.1-71.7c0-2.6,0.9-5.9-2.3-7.3c-2.8-1.3-4.8,1.1-6.7,2.6
	c-29.7,22.2-59.3,44.4-88.8,66.7c-3.1,2.4-6.1,5-9.2,7.4c-0.2,0.1-0.5,0.4-1.1,0.8c-1.6,1.2-4.4,3.5-7.6,6c-3.2-2.5-6.1-4.8-7.6-6
	c-0.5-0.4-0.8-0.7-1.1-0.8c-3.1-2.4-6-5.1-9.2-7.4c-29.5-22.3-59.2-44.5-88.8-66.7c-2-1.5-3.9-3.9-6.7-2.6c-3.2,1.4-2.3,4.7-2.3,7.3
	c-0.1,23.9,0,47.8,0,71.7h0c0,24.3,0.1,48.6-0.1,72.9c0,5.3,1.6,7.4,7.1,7.2c8-0.3,16.1-0.1,24.1-0.1c7.8,0,8-0.2,8-7.8
	c0-24.7,0-49.4,0-74.1c0-1.6-0.1-3.1,0.1-4.7c0.2-3,1.7-3.9,4.3-2.2c1.6,1.1,3.2,2.3,4.6,3.6c20.8,17.9,41.6,35.7,62.3,53.7
	c1.8,1.5,3.5,2.7,5.2,2.6v0c1.8,0.1,3.5-1.1,5.3-2.6c20.7-18,41.5-35.8,62.3-53.7c1.5-1.3,3-2.5,4.6-3.6c2.6-1.7,4.1-0.8,4.3,2.2
	c0.1,1.6,0.1,3.1,0.1,4.7c0,24.7,0,49.4,0,74.1c0,7.6,0.2,7.8,8,7.8c8,0,16.1-0.3,24.1,0.1c5.4,0.2,7.1-1.9,7.1-7.2
	C420.8,784.2,420.9,759.9,420.9,735.6z"/>
<g>
	<linearGradient id="SVGID_00000023963554266136358030000004507995591779665584_" gradientUnits="userSpaceOnUse" x1="261.9075" y1="643.4518" x2="400.9341" y2="810.6147">
		<stop  offset="0" style="stop-color:#0D78F8"/>
		<stop  offset="1" style="stop-color:#0833DB"/>
	</linearGradient>
	<circle style="fill:url(#SVGID_00000023963554266136358030000004507995591779665584_);" cx="304.9" cy="695.2" r="20.9"/>
</g>
<g>
	<linearGradient id="SVGID_00000035526234600194342900000017376426437640898475_" gradientUnits="userSpaceOnUse" x1="523.7034" y1="713.341" x2="657.7648" y2="981.4637">
		<stop  offset="0" style="stop-color:#0D78F8"/>
		<stop  offset="1" style="stop-color:#0833DB"/>
	</linearGradient>
	<polygon style="fill:url(#SVGID_00000035526234600194342900000017376426437640898475_);" points="536.2,744.5 500.8,688.6 491.1,688.6 491.1,786.8 502.4,786.8 502.4,712.1 532.7,759.6 539.3,759.6 569.4,712.3 569.4,786.8 580.7,786.8 580.7,688.6 571.3,688.6"/>
	<linearGradient id="SVGID_00000070828757742952480530000009597334388150851469_" gradientUnits="userSpaceOnUse" x1="591.4436" y1="679.4709" x2="725.5049" y2="947.5937">
		<stop  offset="0" style="stop-color:#0D78F8"/>
		<stop  offset="1" style="stop-color:#0833DB"/>
	</linearGradient>
	<path style="fill:url(#SVGID_00000070828757742952480530000009597334388150851469_);" d="M644.9,719.7c-4.7-3.5-10.4-5.3-16.9-5.3c-5.8,0-11.3,1.5-16.1,4.4c-4.9,2.9-8.8,7.2-11.7,12.7c-2.8,5.5-4.3,11.9-4.3,19.3c0,7.6,1.5,14.3,4.4,19.8c2.9,5.6,7,10,12,13c5,3,10.6,4.5,16.7,4.5c5.5,0,10.7-1.2,15.3-3.7c4.7-2.5,8.1-6.2,10.1-10.9l0.7-1.6l-9-5.1l-1,1.8c-1.5,2.9-3.6,5.1-6.3,6.5c-2.7,1.5-5.9,2.2-9.4,2.2c-4.2,0-7.9-0.9-11.1-2.8c-3.2-1.9-5.8-4.7-7.7-8.5c-1.7-3.4-2.8-7.5-3.1-12.2h48.8l0.2-1.7c0.9-6.5,0.3-12.6-1.6-18.4C653,727.9,649.6,723.2,644.9,719.7z M627.8,725.1c3.6,0,6.8,0.9,9.3,2.6c2.6,1.7,4.6,4.1,6,7.2c1.2,2.6,1.9,5.6,2.1,8.9h-37.1c0.5-3.6,1.6-6.7,3.2-9.4c1.9-3.1,4.2-5.5,7-7C621.2,725.9,624.3,725.1,627.8,725.1z"/>
	<linearGradient id="SVGID_00000033348326324814075760000000150347633773761425_" gradientUnits="userSpaceOnUse" x1="643.7778" y1="653.3038" x2="777.8392" y2="921.4265">
		<stop  offset="0" style="stop-color:#0D78F8"/>
		<stop  offset="1" style="stop-color:#0833DB"/>
	</linearGradient>
	<path style="fill:url(#SVGID_00000033348326324814075760000000150347633773761425_);" d="M700.4,714.5c-5.3,0-10.2,1.4-14.6,4c-2.5,1.5-4.6,3.4-6.4,5.7c-0.1-1.9-0.1-4-0.2-6.3l0-1.9h-10.2v70.9h11.2v-41.3c0-4.3,0.9-8.1,2.6-11.1c1.7-3,4-5.3,6.8-6.8c2.8-1.5,5.9-2.3,9.2-2.3c4.8,0,8.5,1.6,11.2,4.8c2.7,3.3,4.1,8.2,4.1,14.6v42h11.3v-44c0-9-2.3-16-6.9-20.9C713.9,717,707.8,714.5,700.4,714.5z"/>
	<linearGradient id="SVGID_00000118380412873883951730000007911118663338547644_" gradientUnits="userSpaceOnUse" x1="699.6904" y1="625.3475" x2="833.7518" y2="893.4702">
		<stop  offset="0" style="stop-color:#0D78F8"/>
		<stop  offset="1" style="stop-color:#0833DB"/>
	</linearGradient>
	<path style="fill:url(#SVGID_00000118380412873883951730000007911118663338547644_);" d="M772.3,775.1c-1.3,0.8-2.6,1.3-3.8,1.7c-1.2,0.3-2.5,0.5-4,0.5c-2.9,0-5.1-0.9-6.5-2.6c-1.5-1.9-2.3-5.2-2.3-9.9V726h18.8v-10.3h-18.8v-18.5h-11.3v18.5h-11.1V726h11.1v39.6c0,8.1,1.7,13.7,5.3,17.2c3.5,3.5,8.3,5.2,14.2,5.2c5.1,0,9.5-1.2,13-3.7l1.3-0.9l-3.9-9.5L772.3,775.1z"/>
	<linearGradient id="SVGID_00000124841722443857089520000011497022042329756350_" gradientUnits="userSpaceOnUse" x1="740.8765" y1="604.7545" x2="874.9378" y2="872.8772">
		<stop  offset="0" style="stop-color:#0D78F8"/>
		<stop  offset="1" style="stop-color:#0833DB"/>
	</linearGradient>
	<path style="fill:url(#SVGID_00000124841722443857089520000011497022042329756350_);" d="M830.5,719.1c-5-3.1-10.5-4.7-16.4-4.7c-5.8,0-11.4,1.6-16.4,4.7c-5,3.1-9,7.6-12,13.2c-2.9,5.6-4.4,12-4.4,18.9c0,7,1.5,13.4,4.4,18.9c2.9,5.6,7,10,12,13.1c5,3.1,10.5,4.7,16.4,4.7c5.8,0,11.4-1.6,16.4-4.7c5-3.1,9-7.6,12-13.1c2.9-5.5,4.4-11.9,4.4-18.9c0-7.1-1.5-13.5-4.4-19.1C839.5,726.6,835.5,722.2,830.5,719.1z M814.1,777.2c-3.9,0-7.5-1-10.6-3.1c-3.2-2.1-5.8-5.1-7.7-8.9c-1.9-3.9-2.9-8.6-2.9-13.8c0-5.3,1-9.9,2.9-13.9c1.9-3.9,4.5-6.9,7.7-9c3.2-2.1,6.8-3.1,10.6-3.1c3.9,0,7.5,1,10.6,3.1c3.2,2.1,5.7,5.1,7.6,9c1.9,4,2.8,8.6,2.8,13.9c0,5.3-1,9.9-2.9,13.8c-1.9,3.9-4.5,6.9-7.6,8.9C821.6,776.1,818,777.2,814.1,777.2z"/>
	<linearGradient id="SVGID_00000061456830628863128680000010303260854335289524_" gradientUnits="userSpaceOnUse" x1="793.1628" y1="578.6113" x2="927.2242" y2="846.734">
		<stop  offset="0" style="stop-color:#0D78F8"/>
		<stop  offset="1" style="stop-color:#0833DB"/>
	</linearGradient>
	<path style="fill:url(#SVGID_00000061456830628863128680000010303260854335289524_);" d="M893.7,715.3L893.7,715.3c-1.7-0.5-3.5-0.8-5.5-0.8c-4.5,0-8.6,1.3-12.1,4c-1.7,1.3-3.2,2.9-4.6,4.7c-0.1-1.6-0.1-3.4-0.1-5.4l0-1.9h-10.2v70.9h11.2v-38.9c0-5,0.7-9.3,2.2-12.7c1.4-3.3,3.4-5.8,5.7-7.4c2.4-1.6,5-2.4,7.9-2.4c2,0,3.7,0.4,4.9,1.1l1.9,1.2l4.3-9.4l-1.3-0.9C896.7,716.5,895.3,715.8,893.7,715.3z"/>
	<linearGradient id="SVGID_00000034795816308184655440000010520557492426428819_" gradientUnits="userSpaceOnUse" x1="844.3851" y1="553.0002" x2="978.4465" y2="821.1229">
		<stop  offset="0" style="stop-color:#0D78F8"/>
		<stop  offset="1" style="stop-color:#0833DB"/>
	</linearGradient>
	<polygon style="fill:url(#SVGID_00000034795816308184655440000010520557492426428819_);" points="907.6,786.8 919.3,786.8 919.3,743.3 961.2,743.3 961.2,732.5 919.3,732.5 919.3,699.3 965.9,699.3 965.9,688.6 907.6,688.6"/>
	<linearGradient id="SVGID_00000132786402526994625160000006931748019899261876_" gradientUnits="userSpaceOnUse" x1="897.8657" y1="526.2599" x2="1031.927" y2="794.3826">
		<stop  offset="0" style="stop-color:#0D78F8"/>
		<stop  offset="1" style="stop-color:#0833DB"/>
	</linearGradient>
	<path style="fill:url(#SVGID_00000132786402526994625160000006931748019899261876_);" d="M983.5,690.2c-2,0-3.8,0.8-5.2,2.2c-1.4,1.4-2.1,3.2-2.1,5.2c0,2,0.7,3.7,2.2,5.2c1.5,1.5,3.2,2.2,5.2,2.2c2,0,3.7-0.7,5.2-2.2c1.4-1.4,2.1-3.2,2.1-5.2s-0.7-3.7-2.1-5.2C987.3,691,985.6,690.2,983.5,690.2z"/>
	<linearGradient id="SVGID_00000101786522000405628480000015234099483140551306_" gradientUnits="userSpaceOnUse" x1="876.3229" y1="537.0313" x2="1010.3843" y2="805.154">
		<stop  offset="0" style="stop-color:#0D78F8"/>
		<stop  offset="1" style="stop-color:#0833DB"/>
	</linearGradient>
	<rect x="977.9" y="715.9" style="fill:url(#SVGID_00000101786522000405628480000015234099483140551306_);" width="11.2" height="70.9"/>
	<linearGradient id="SVGID_00000174572438598967570290000004381910043331149233_" gradientUnits="userSpaceOnUse" x1="914.4379" y1="517.9738" x2="1048.4993" y2="786.0965">
		<stop  offset="0" style="stop-color:#0D78F8"/>
		<stop  offset="1" style="stop-color:#0833DB"/>
	</linearGradient>
	<path style="fill:url(#SVGID_00000174572438598967570290000004381910043331149233_);" d="M1056.8,721.9c-4.6-4.9-10.7-7.5-18.1-7.5c-5.3,0-10.2,1.4-14.6,4c-2.5,1.5-4.6,3.4-6.4,5.7c-0.1-1.9-0.1-4-0.2-6.3l0-1.9h-10.2v70.9h11.2v-41.3c0-4.3,0.9-8.1,2.6-11.1c1.7-3,4-5.3,6.8-6.8c2.8-1.5,5.9-2.3,9.2-2.3c4.8,0,8.5,1.6,11.2,4.8c2.7,3.3,4.1,8.2,4.1,14.6v42h11.3v-44C1063.8,733.9,1061.4,726.8,1056.8,721.9L1056.8,721.9z"/>
	<linearGradient id="SVGID_00000158751666111630439840000015104876603242634639_" gradientUnits="userSpaceOnUse" x1="987.2402" y1="481.5727" x2="1121.3015" y2="749.6954">
		<stop  offset="0" style="stop-color:#0D78F8"/>
		<stop  offset="1" style="stop-color:#0833DB"/>
	</linearGradient>
	<path style="fill:url(#SVGID_00000158751666111630439840000015104876603242634639_);" d="M1128.7,724.5c-1.8-2.4-4-4.3-6.4-5.9c-4.5-2.8-9.4-4.2-14.8-4.2c-5.5,0-10.7,1.5-15.4,4.5c-4.7,3-8.5,7.3-11.3,12.8c-2.7,5.5-4.1,12-4.1,19.4c0,7.5,1.4,14.1,4.1,19.6c2.8,5.6,6.6,9.9,11.3,12.8c4.7,2.9,9.9,4.4,15.4,4.4c5.4,0,10.5-1.5,15.1-4.4c2.7-1.7,5-3.9,6.8-6.5c0.1,2.2,0.1,4.8,0.2,7.7l0,2h10.4V685h-11.3V724.5z M1108.3,777.3c-3.8,0-7.2-1-10.2-3c-3-2-5.4-4.9-7.2-8.8c-1.8-3.9-2.7-8.8-2.7-14.4c0-5.5,0.9-10.3,2.7-14.3c1.7-3.8,4.1-6.8,7.1-8.7c3-1.9,6.4-2.9,10.3-2.9c3.4,0,6.7,0.9,9.8,2.5c3,1.6,5.6,4.4,7.6,8.2c2,3.9,3.1,8.9,3.1,15.1c0,6.3-1,11.4-3.1,15.2c-2,3.8-4.6,6.6-7.6,8.3C1115,776.4,1111.7,777.3,1108.3,777.3z"/>
	<linearGradient id="SVGID_00000101068488745539217350000009883018325420756103_" gradientUnits="userSpaceOnUse" x1="1037.9752" y1="456.2052" x2="1172.0365" y2="724.3279">
		<stop  offset="0" style="stop-color:#0D78F8"/>
		<stop  offset="1" style="stop-color:#0833DB"/>
	</linearGradient>
	<path style="fill:url(#SVGID_00000101068488745539217350000009883018325420756103_);" d="M1203.1,719.7c-4.7-3.5-10.4-5.3-16.9-5.3c-5.8,0-11.3,1.5-16.1,4.4c-4.9,2.9-8.8,7.2-11.7,12.7c-2.8,5.5-4.3,11.9-4.3,19.3c0,7.6,1.5,14.3,4.4,19.8c2.9,5.6,7,10,12,13c5,3,10.6,4.5,16.7,4.5c5.5,0,10.7-1.2,15.3-3.7c4.7-2.5,8.1-6.2,10.1-10.9l0.7-1.6l-9-5.1l-0.9,1.8c-1.5,2.9-3.6,5.1-6.3,6.5c-2.7,1.5-5.9,2.2-9.4,2.2c-4.2,0-7.9-0.9-11.1-2.8c-3.2-1.9-5.8-4.7-7.7-8.5c-1.7-3.4-2.8-7.5-3.1-12.2h48.8l0.2-1.7c0.9-6.5,0.3-12.6-1.6-18.4C1211.2,727.9,1207.8,723.2,1203.1,719.7z M1185.9,725.1c3.6,0,6.8,0.9,9.3,2.6c2.6,1.7,4.6,4.1,6,7.2c1.2,2.6,1.9,5.6,2.1,8.9h-37.1c0.5-3.6,1.6-6.7,3.2-9.4c1.9-3.1,4.2-5.5,7-7C1179.3,725.9,1182.5,725.1,1185.9,725.1z"/>
	<linearGradient id="SVGID_00000171698724856025851960000008500340679978558398_" gradientUnits="userSpaceOnUse" x1="1086.077" y1="432.1543" x2="1220.1383" y2="700.277">
		<stop  offset="0" style="stop-color:#0D78F8"/>
		<stop  offset="1" style="stop-color:#0833DB"/>
	</linearGradient>
	<path style="fill:url(#SVGID_00000171698724856025851960000008500340679978558398_);" d="M1264,717.3c-1.1-0.8-2.5-1.5-4.2-2l0,0c-1.7-0.5-3.5-0.8-5.5-0.8c-4.5,0-8.6,1.3-12.1,4c-1.7,1.3-3.2,2.9-4.6,4.7c-0.1-1.6-0.1-3.4-0.1-5.4l0-1.9h-10.2v70.9h11.2v-38.9c0-5,0.7-9.3,2.2-12.7c1.4-3.3,3.3-5.8,5.7-7.4c2.4-1.6,5-2.4,7.9-2.4c2,0,3.7,0.4,4.9,1.1l1.9,1.2l4.3-9.4L1264,717.3z"/>
</g>
</svg>
